{
  "accessors": {
    "accessor_21": {
      "bufferView": "bufferView_2",
      "byteOffset": 0,
      "byteStride": 0,
      "componentType": 5123,
      "count": 12168,
      "type": "SCALAR",
      "min": [
        0
      ],
      "max": [
        12167
      ]
    },
    "accessor_23": {
      "bufferView": "bufferView_0",
      "byteOffset": 0,
      "byteStride": 0,
      "componentType": 5123,
      "count": 2048,
      "max": [
        65535,
        65535,
        65535
      ],
      "min": [
        0,
        0,
        0
      ],
      "type": "VEC3",
      "extensions": {
        "WEB3D_quantized_attributes": {
          "decodedMin": [
            -60.65530014038086,
            -39.27330017089844,
            -110.802001953125
          ],
          "decodedMax": [
            131.3310089111328,
            39.806800842285156,
            65.8145980834961
          ],
          "decodeMatrix": [
            0.0029295232936829736,
            0,
            0,
            0,
            0,
            0.0012066849929531333,
            0,
            0,
            0,
            0,
            0.002694996567278875,
            0,
            -60.65530014038086,
            -39.27330017089844,
            -110.802001953125,
            1
          ]
        }
      }
    },
    "accessor_25": {
      "bufferView": "bufferView_0",
      "byteOffset": 12288,
      "byteStride": 0,
      "componentType": 5121,
      "count": 2048,
      "max": [
        255,
        255
      ],
      "min": [
        0,
        0
      ],
      "type": "VEC2"
    },
    "animAccessor_0": {
      "bufferView": "bufferView_1",
      "byteOffset": 0,
      "componentType": 5126,
      "count": 4,
      "type": "SCALAR",
      "byteStride": 0,
      "min": [
        0.03333330154418945
      ],
      "max": [
        3
      ]
    },
    "animAccessor_1": {
      "bufferView": "bufferView_1",
      "byteOffset": 16,
      "componentType": 5126,
      "count": 4,
      "type": "VEC3",
      "byteStride": 0,
      "min": [
        -0.5300650000572205,
        -0.6424379944801331,
        1.7815200090408325
      ],
      "max": [
        2.5345799922943115,
        -0.6424379944801331,
        9.67195987701416
      ]
    },
    "animAccessor_2": {
      "bufferView": "bufferView_1",
      "byteOffset": 64,
      "componentType": 5126,
      "count": 4,
      "type": "VEC4",
      "byteStride": 0,
      "min": [
        -0.1526835709810257,
        -0.7381681203842163,
        -0.5693113207817078,
        -0.6610226035118103
      ],
      "max": [
        0.1017163097858429,
        0.48494699597358704,
        0.5654140114784241,
        0.9788388013839722
      ]
    },
    "animAccessor_3": {
      "bufferView": "bufferView_1",
      "byteOffset": 128,
      "componentType": 5126,
      "count": 4,
      "type": "VEC3",
      "byteStride": 0,
      "min": [
        0.009866650216281414,
        0.009866650216281414,
        0.009866650216281414
      ],
      "max": [
        0.009866650216281414,
        0.009866650216281414,
        0.009866650216281414
      ]
    }
  },
  "animations": {
    "animation_0": {
      "channels": [
        {
          "sampler": "animation_0_translation_sampler",
          "target": {
            "id": "dog_01",
            "path": "translation"
          }
        }
      ],
      "parameters": {
        "TIME": "animAccessor_0",
        "translation": "animAccessor_1"
      },
      "samplers": {
        "animation_0_translation_sampler": {
          "input": "TIME",
          "interpolation": "LINEAR",
          "output": "translation"
        }
      }
    },
    "animation_1": {
      "channels": [],
      "parameters": {
        "TIME": "animAccessor_0"
      },
      "samplers": {}
    },
    "animation_2": {
      "channels": [],
      "parameters": {
        "TIME": "animAccessor_0"
      },
      "samplers": {}
    },
    "animation_3": {
      "channels": [
        {
          "sampler": "animation_3_rotation_sampler",
          "target": {
            "id": "dog_01",
            "path": "rotation"
          }
        }
      ],
      "parameters": {
        "TIME": "animAccessor_0",
        "rotation": "animAccessor_2"
      },
      "samplers": {
        "animation_3_rotation_sampler": {
          "input": "TIME",
          "interpolation": "LINEAR",
          "output": "rotation"
        }
      }
    },
    "animation_4": {
      "channels": [],
      "parameters": {
        "TIME": "animAccessor_0"
      },
      "samplers": {}
    },
    "animation_5": {
      "channels": [],
      "parameters": {
        "TIME": "animAccessor_0"
      },
      "samplers": {}
    },
    "animation_6": {
      "channels": [
        {
          "sampler": "animation_6_scale_sampler",
          "target": {
            "id": "dog_01",
            "path": "scale"
          }
        }
      ],
      "parameters": {
        "TIME": "animAccessor_0",
        "scale": "animAccessor_3"
      },
      "samplers": {
        "animation_6_scale_sampler": {
          "input": "TIME",
          "interpolation": "LINEAR",
          "output": "scale"
        }
      }
    },
    "animation_7": {
      "channels": [],
      "parameters": {
        "TIME": "animAccessor_0"
      },
      "samplers": {}
    },
    "animation_8": {
      "channels": [],
      "parameters": {
        "TIME": "animAccessor_0"
      },
      "samplers": {}
    }
  },
  "asset": {
    "generator": "collada2gltf@",
    "premultipliedAlpha": true,
    "profile": {
      "api": "WebGL",
      "version": "1.0.2"
    },
    "version": "1.0"
  },
  "bufferViews": {
    "bufferView_0": {
      "buffer": "buffer_0",
      "byteLength": 16384,
      "byteOffset": 0,
      "target": 34962
    },
    "bufferView_1": {
      "buffer": "buffer_0",
      "byteLength": 176,
      "byteOffset": 16384
    },
    "bufferView_2": {
      "buffer": "buffer_0",
      "byteLength": 24336,
      "byteOffset": 16560,
      "target": 34963
    }
  },
  "buffers": {
    "buffer_0": {
      "type": "arraybuffer",
      "byteLength": 40896,
      "uri": "data:application/octet-stream;base64,"
    }
  },
  "materials": {
    "golden-effect": {
      "name": "golden",
      "technique": "technique0",
      "values": {
        "ambient": [
          0,
          0,
          0,
          1
        ],
        "diffuse": [
          0.6588240265846252,
          0.4172549843788147,
          0.10666699707508087,
          1
        ],
        "emission": [
          0,
          0,
          0,
          1
        ],
        "shininess": 14,
        "specular": [
          0.5882350206375122,
          0.5529410243034363,
          0.35686299204826355,
          1
        ]
      }
    }
  },
  "meshes": {
    "Untitled-mesh": {
      "name": "Untitled",
      "primitives": [
        {
          "attributes": {
            "NORMAL": "accessor_25",
            "POSITION": "accessor_23"
          },
          "indices": "accessor_21",
          "material": "golden-effect",
          "mode": 4
        }
      ]
    }
  },
  "nodes": {
    "dog_01": {
      "children": [],
      "meshes": [
        "Untitled-mesh"
      ],
      "name": "dog_01",
      "rotation": [
        0.048205871134996414,
        0.02613798715174198,
        0.19714903831481934,
        0.9788387417793274
      ],
      "scale": [
        0.00986665952950716,
        0.00986665952950716,
        0.00986665952950716
      ],
      "translation": [
        -0.5300650000572205,
        -0.6424379944801331,
        1.7815200090408325
      ]
    },
    "node_1": {
      "children": [
        "dog_01"
      ],
      "matrix": [
        1,
        0,
        0,
        0,
        0,
        0,
        -1,
        0,
        0,
        1,
        0,
        0,
        0,
        0,
        0,
        1
      ],
      "name": "Y_UP_Transform"
    }
  },
  "programs": {
    "program_0": {
      "attributes": [
        "a_normal",
        "a_position"
      ],
      "fragmentShader": "input0FS",
      "vertexShader": "input0VS"
    }
  },
  "scene": "defaultScene",
  "scenes": {
    "defaultScene": {
      "nodes": [
        "node_1"
      ]
    }
  },
  "shaders": {
    "input0FS": {
      "type": 35632,
      "uri": "data:text/plain;base64,"
    },
    "input0VS": {
      "type": 35633,
      "uri": "data:text/plain;base64,"
    }
  },
  "skins": {},
  "techniques": {
    "technique0": {
      "attributes": {
        "a_normal": "normal",
        "a_position": "position"
      },
      "parameters": {
        "ambient": {
          "type": 35666
        },
        "diffuse": {
          "type": 35666
        },
        "emission": {
          "type": 35666
        },
        "modelViewMatrix": {
          "semantic": "MODELVIEW",
          "type": 35676
        },
        "normal": {
          "semantic": "NORMAL",
          "type": 35667
        },
        "normalMatrix": {
          "semantic": "MODELVIEWINVERSETRANSPOSE",
          "type": 35675
        },
        "position": {
          "semantic": "POSITION",
          "type": 35665
        },
        "projectionMatrix": {
          "semantic": "PROJECTION",
          "type": 35676
        },
        "shininess": {
          "type": 5126
        },
        "specular": {
          "type": 35666
        }
      },
      "program": "program_0",
      "states": {
        "enable": [
          2929,
          2884
        ],
        "disable": []
      },
      "uniforms": {
        "u_ambient": "ambient",
        "u_diffuse": "diffuse",
        "u_emission": "emission",
        "u_modelViewMatrix": "modelViewMatrix",
        "u_normalMatrix": "normalMatrix",
        "u_projectionMatrix": "projectionMatrix",
        "u_shininess": "shininess",
        "u_specular": "specular"
      }
    }
  },
  "extensionsUsed": [
    "WEB3D_quantized_attributes"
  ],
  "cameras": {},
  "images": {},
  "samplers": {},
  "textures": {}
}
